<?xml version="1.0" standalone="no"?>
<!DOCTYPE svg PUBLIC "-//W3C//DTD SVG 20010904//EN"
 "http://www.w3.org/TR/2001/REC-SVG-20010904/DTD/svg10.dtd">
<svg version="1.0" xmlns="http://www.w3.org/2000/svg"
 width="16.000000pt" height="16.000000pt" viewBox="0 0 16.000000 16.000000"
 preserveAspectRatio="xMidYMid meet">
<metadata>
Created by potrace 1.11, written by Peter Selinger 2001-2013
</metadata>
<g transform="translate(0.000000,16.000000) scale(0.003333,-0.003333)"
fill="#000000" stroke="none">
<path d="M1542 4058 l-142 -143 157 -156 c86 -86 158 -161 160 -165 1 -5 -23
-27 -53 -48 -76 -55 -200 -189 -254 -274 l-45 -71 -282 0 -283 -1 0 -200 0
-200 210 0 210 0 -5 -22 c-9 -37 -13 -105 -14 -245 l-1 -133 -200 0 -200 0 0
-200 0 -200 200 0 200 0 1 -132 c1 -134 4 -189 13 -240 l5 -28 -209 0 -210 0
0 -200 0 -200 284 0 284 0 15 -33 c27 -55 139 -189 218 -258 148 -132 350
-239 516 -274 191 -40 389 -42 543 -5 105 25 260 82 302 111 14 11 29 19 33
19 4 0 41 24 83 52 100 68 233 202 306 305 l58 83 279 0 279 0 0 200 0 200
-210 0 -210 0 5 28 c12 65 13 95 14 230 l1 142 200 0 200 0 0 200 0 200 -200
0 -200 0 -1 133 c-1 135 -3 179 -12 235 l-5 32 209 0 209 0 0 200 0 200 -280
0 -279 0 -42 62 c-56 82 -63 91 -142 174 -38 39 -92 89 -122 110 -30 22 -53
42 -52 46 1 4 73 79 160 166 l157 159 -142 142 -142 142 -217 -217 c-238 -238
-214 -222 -309 -199 -46 12 -284 13 -350 3 -132 -22 -106 -37 -343 199 l-213
213 -142 -142z m1258 -1458 l0 -200 -400 0 -400 0 0 200 0 200 400 0 400 0 0
-200z m0 -800 l0 -200 -400 0 -400 0 0 200 0 200 400 0 400 0 0 -200z"/>
</g>
</svg>
